<svg width="147" height="158" viewBox="0 0 147 158" fill="none" xmlns="http://www.w3.org/2000/svg">
<path d="M36.75 123.482C33.075 125.16 29.4 126.278 25.725 126.278C12.075 126.278 0 113.415 0 98.8734C0 83.7728 11.025 71.4686 24.675 70.9093H135.45C141.75 70.9093 147 75.9428 147 82.0949V82.6542C147 111.737 129.15 136.345 104.475 144.734H141.225C144.375 144.734 147 147.531 147 150.887C147 154.242 144.375 157.039 141.225 157.039H19.425C16.275 157.039 13.65 154.242 13.65 150.887C13.65 147.531 16.275 144.734 19.425 144.734H65.625C54.6 141.379 44.625 133.549 36.75 123.482ZM23.625 83.2135C15.225 84.332 9.45 93.2805 11.55 102.788C13.125 109.5 18.9 113.974 25.2 113.974C26.775 113.974 28.875 113.974 30.45 113.415C26.25 103.907 23.625 93.8398 23.625 83.2135Z" fill="#09070C"/>
<path d="M108.15 45.7416C116.025 48.538 112.35 61.4015 105 58.605C96.075 55.2494 92.925 45.7416 95.025 36.2338C96.075 31.7595 98.7 27.2853 100.8 22.811C101.85 20.5739 104.475 14.9811 101.325 12.7439C94.5 8.26968 100.8 -3.47524 107.625 0.999012C114.975 6.59183 116.55 16.0996 113.925 24.4889C112.875 27.2853 102.375 44.0637 108.15 45.7416Z" fill="#FF0F00"/>
<path d="M73.5 50.7751C81.375 53.5715 77.7 66.435 70.35 63.6386C61.425 60.2829 58.275 50.7751 60.375 41.2673C61.425 36.7931 64.05 32.3188 66.15 27.8446C67.2 25.6074 69.825 20.0146 66.675 17.7775C59.85 13.3032 66.15 1.55833 72.975 6.03258C80.325 11.0661 81.9 20.5739 79.275 28.9631C78.225 32.3188 67.725 48.538 73.5 50.7751Z" fill="#FF0F00"/>
</svg>
